# xmcd
#
# Track frame offsets: 
#        150
#        20962
#        39865
#        59430
#
# Disc length: 1216 seconds
#
# Revision: 1
# Processed by: cddbd v1.5.2PL0 Copyright (c) Steve Scherf et al.
# Submitted via: ExactAudioCopy v0.95b4
#
DISCID=2f04be04
DTITLE=Ginuwine - Holler [CD Single)
DYEAR=1997
DGENRE=R&B
TTITLE0=Holler (Album Version)
TTITLE1=Holler (Full Crew Phat Mix)
TTITLE2=Holler (Full Crew Smoove Mix)
TTITLE3=Holler (Strike Mix)
EXTD=
EXTT0=
EXTT1=
EXTT2=
EXTT3=
PLAYORDER=
